<?xml version="1.0" encoding="UTF-8"?>
<svg width="146px" height="96px" viewBox="0 0 146 96" version="1.1" xmlns="http://www.w3.org/2000/svg" xmlns:xlink="http://www.w3.org/1999/xlink">
    <!-- Generator: Sketch 58 (84663) - https://sketch.com -->
    <title>Logo</title>
    <desc>Created with Sketch.</desc>
    <g id="Website" stroke="none" stroke-width="1" fill="none" fill-rule="evenodd">
        <g id="Homepage-(alternative-02)" transform="translate(-135.000000, -4925.000000)" fill="#000000">
            <g id="Footer" transform="translate(135.000000, 4925.000000)">
                <g id="Logos/Full">
                    <path d="M69.1900759,92.7417545 C69.3340759,93.1125545 69.4072759,93.4965544 69.4072759,93.8913544 C69.4072759,94.3425544 69.2908759,94.7121544 69.0568759,94.9989543 C68.8228759,95.2857543 68.4676759,95.4285543 67.9912759,95.4285543 L67.9912759,94.8717543 C68.1928759,94.8717543 68.3416759,94.8189543 68.4388759,94.7145544 C68.5360759,94.6101544 68.5840759,94.4325544 68.5840759,94.1817544 L68.5840759,94.0725544 L67.882076,94.0725544 L67.882076,92.7417545 L69.1900759,92.7417545 Z M33.917518,87.0160748 L33.917518,90.7444746 C33.917518,91.3492746 34.069918,91.8160745 34.377118,92.1424745 C34.6831179,92.4688745 35.1031179,92.6332745 35.6359179,92.6332745 C36.1843178,92.6332745 36.6235178,92.4556745 36.9547178,92.1004745 C37.2859178,91.7452745 37.4515178,91.2280746 37.4515178,90.5500746 L37.4515178,87.0160748 L38.8435177,87.0160748 L38.8435177,93.6856744 L37.4515178,93.6856744 L37.451,92.234 L37.3821662,92.4129971 C37.2065865,92.8193307 36.9347678,93.1410244 36.5683178,93.3772744 C36.1483178,93.6472744 35.6599179,93.7828744 35.1031179,93.7828744 C34.327918,93.7828744 33.707518,93.5332744 33.239518,93.0316745 C32.770318,92.5324745 32.5375181,91.8172745 32.5375181,90.8896746 L32.5375181,87.0160748 L33.917518,87.0160748 Z M47.5833572,87.0160748 L47.5833572,90.7444746 C47.5833572,91.3492746 47.7357572,91.8160745 48.0429571,92.1424745 C48.3489571,92.4688745 48.7689571,92.6332745 49.3017571,92.6332745 C49.850157,92.6332745 50.289357,92.4556745 50.620557,92.1004745 C50.951757,91.7452745 51.117357,91.2280746 51.117357,90.5500746 L51.117357,87.0160748 L52.5093569,87.0160748 L52.5093569,93.6856744 L51.117357,93.6856744 L51.117,92.234 L51.0480054,92.4129971 C50.8724257,92.8193307 50.600607,93.1410244 50.234157,93.3772744 C49.814157,93.6472744 49.3257571,93.7828744 48.7689571,93.7828744 C47.9937571,93.7828744 47.3733572,93.5332744 46.9053572,93.0316745 C46.4361572,92.5324745 46.2033572,91.8172745 46.2033572,90.8896746 L46.2033572,87.0160748 L47.5833572,87.0160748 Z M142.022632,84.7291149 L142.022632,93.6859144 L140.630632,93.6859144 L140.630632,92.1367145 C140.461432,92.6287145 140.162632,93.0247145 139.734232,93.3223144 C139.307032,93.6211144 138.791032,93.7711144 138.185032,93.7711144 C137.604232,93.7711144 137.085832,93.6331144 136.629832,93.3583144 C136.173832,93.0847145 135.816232,92.6887145 135.559432,92.1727145 C135.300232,91.6555145 135.170632,91.0471146 135.170632,90.3451146 C135.170632,89.6515147 135.300232,89.0455147 135.559432,88.5283147 C135.816232,88.0123148 136.173832,87.6175148 136.629832,87.3427148 C137.085832,87.0691148 137.604232,86.9311148 138.185032,86.9311148 C138.791032,86.9311148 139.307032,87.0799148 139.734232,87.3787148 C140.162632,87.6787148 140.461432,88.0735148 140.630632,88.5655147 L140.630632,84.7291149 L142.022632,84.7291149 Z M63.1730362,86.9312348 C63.8270362,86.9312348 64.3982362,87.0668348 64.8866361,87.3368348 C65.3738361,87.6068348 65.7494361,87.9776348 66.0122361,88.4504347 C66.273836,88.9232347 66.405836,89.4488347 66.405836,90.0296346 C66.405836,90.2564346 66.389036,90.4532346 66.356636,90.6224346 L61.2242364,90.6224346 C61.2482363,91.3088346 61.4390363,91.8176345 61.7930363,92.1476345 C62.1482363,92.4788345 62.5886363,92.6444345 63.1130362,92.6444345 C63.5726362,92.6444345 63.9626362,92.5280345 64.2806362,92.2940345 C64.5998361,92.0600345 64.7954361,91.7492345 64.8674361,91.3616346 L66.344636,91.3616346 C66.2558361,91.8296345 66.0698361,92.2460345 65.7878361,92.6084345 C65.5058361,92.9720345 65.1386361,93.2564344 64.6862361,93.4616344 C64.2350362,93.6680344 63.7298362,93.7712344 63.1730362,93.7712344 C62.5274363,93.7712344 61.9574363,93.6332344 61.4606363,93.3584344 C60.9638364,93.0848345 60.5750364,92.6888345 60.2918364,92.1728345 C60.0098364,91.6556345 59.8682364,91.0472346 59.8682364,90.3452346 C59.8682364,89.6504347 60.0098364,89.0456347 60.2918364,88.5284347 C60.5750364,88.0124348 60.9638364,87.6176348 61.4606363,87.3428348 C61.9574363,87.0692348 62.5274363,86.9312348 63.1730362,86.9312348 Z M88.0845547,86.9311148 C88.6893547,86.9311148 89.2053547,87.0799148 89.6337547,87.3787148 C90.0609546,87.6787148 90.3633546,88.0735148 90.5409546,88.5655147 L90.5409546,87.0163148 L91.9209545,87.0163148 L91.9209545,93.6859144 L90.5409546,93.6859144 L90.5409546,92.1367145 C90.3633546,92.6287145 90.0609546,93.0247145 89.6337547,93.3223144 C89.2053547,93.6211144 88.6893547,93.7711144 88.0845547,93.7711144 C87.5025548,93.7711144 86.9841548,93.6331144 86.5281548,93.3583144 C86.0721549,93.0847145 85.7157549,92.6887145 85.4577549,92.1727145 C85.1985549,91.6555145 85.0701549,91.0471146 85.0701549,90.3451146 C85.0701549,89.6515147 85.1985549,89.0455147 85.4577549,88.5283147 C85.7157549,88.0123148 86.0721549,87.6175148 86.5281548,87.3427148 C86.9841548,87.0691148 87.5025548,86.9311148 88.0845547,86.9311148 Z M130.341352,86.9312348 C130.994152,86.9312348 131.566552,87.0668348 132.053752,87.3368348 C132.542152,87.6068348 132.917752,87.9776348 133.180552,88.4504347 C133.442152,88.9232347 133.574152,89.4488347 133.574152,90.0296346 C133.574152,90.2564346 133.557352,90.4532346 133.524952,90.6224346 L128.392552,90.6224346 C128.416552,91.3088346 128.606152,91.8176345 128.961352,92.1476345 C129.316552,92.4788345 129.755752,92.6444345 130.281352,92.6444345 C130.740952,92.6444345 131.130952,92.5280345 131.448952,92.2940345 C131.768152,92.0600345 131.963752,91.7492345 132.035752,91.3616346 L133.512952,91.3616346 C133.424152,91.8296345 133.238152,92.2460345 132.956152,92.6084345 C132.674152,92.9720345 132.305752,93.2564344 131.854552,93.4616344 C131.402152,93.6680344 130.898152,93.7712344 130.341352,93.7712344 C129.695752,93.7712344 129.125752,93.6332344 128.628952,93.3584344 C128.132152,93.0848345 127.742152,92.6888345 127.460152,92.1728345 C127.178152,91.6556345 127.036552,91.0472346 127.036552,90.3452346 C127.036552,89.6504347 127.178152,89.0456347 127.460152,88.5284347 C127.742152,88.0124348 128.132152,87.6176348 128.628952,87.3428348 C129.125752,87.0692348 129.695752,86.9312348 130.341352,86.9312348 Z M116.021393,86.9311148 C116.627393,86.9311148 117.143393,87.0799148 117.570593,87.3787148 C117.998993,87.6787148 118.301393,88.0735148 118.478993,88.5655147 L118.478993,87.0163148 L119.858993,87.0163148 L119.858993,93.6859144 L118.478993,93.6859144 L118.478993,92.1367145 C118.301393,92.6287145 117.998993,93.0247145 117.570593,93.3223144 C117.143393,93.6211144 116.627393,93.7711144 116.021393,93.7711144 C115.440593,93.7711144 114.922193,93.6331144 114.466193,93.3583144 C114.010193,93.0847145 113.652593,92.6887145 113.395793,92.1727145 C113.136593,91.6555145 113.006993,91.0471146 113.006993,90.3451146 C113.006993,89.6515147 113.136593,89.0455147 113.395793,88.5283147 C113.652593,88.0123148 114.010193,87.6175148 114.466193,87.3427148 C114.922193,87.0691148 115.440593,86.9311148 116.021393,86.9311148 Z M19.2581989,86.9312348 C19.9121988,86.9312348 20.4833988,87.0668348 20.9717987,87.3368348 C21.4589987,87.6068348 21.8345987,87.9776348 22.0973987,88.4504347 C22.3589987,88.9232347 22.4909987,89.4488347 22.4909987,90.0296346 C22.4909987,90.2564346 22.4741987,90.4532346 22.4417987,90.6224346 L17.309399,90.6224346 C17.333399,91.3088346 17.524199,91.8176345 17.8781989,92.1476345 C18.2333989,92.4788345 18.6737989,92.6444345 19.1981989,92.6444345 C19.6577988,92.6444345 20.0477988,92.5280345 20.3657988,92.2940345 C20.6849988,92.0600345 20.8805988,91.7492345 20.9525988,91.3616346 L22.4297987,91.3616346 C22.3409987,91.8296345 22.1549987,92.2460345 21.8729987,92.6084345 C21.5909987,92.9720345 21.2237987,93.2564344 20.7713988,93.4616344 C20.3201988,93.6680344 19.8149988,93.7712344 19.2581989,93.7712344 C18.6125989,93.7712344 18.0425989,93.6332344 17.545799,93.3584344 C17.048999,93.0848345 16.660199,92.6888345 16.376999,92.1728345 C16.094999,91.6556345 15.953399,91.0472346 15.953399,90.3452346 C15.953399,89.6504347 16.094999,89.0456347 16.376999,88.5284347 C16.660199,88.0124348 17.048999,87.6176348 17.545799,87.3428348 C18.0425989,87.0692348 18.6125989,86.9312348 19.2581989,86.9312348 Z M104.885514,86.9305148 C105.667914,86.9305148 106.295514,87.1309148 106.768314,87.5305148 C107.241114,87.9301148 107.529114,88.4641147 107.633514,89.1337147 L106.326714,89.1337147 C106.269114,88.7713147 106.114314,88.4797147 105.859914,88.2565147 C105.605514,88.0345148 105.268314,87.9241148 104.849514,87.9241148 C104.501514,87.9241148 104.233914,88.0069148 104.044314,88.1725147 C103.854714,88.3369147 103.759914,88.5613147 103.759914,88.8445147 C103.759914,89.0545147 103.828314,89.2237147 103.966314,89.3521147 C104.103114,89.4817147 104.273514,89.5825147 104.479914,89.6557147 C104.686314,89.7277147 104.977914,89.8081146 105.357114,89.8969146 C105.857514,90.0097146 106.263114,90.1273146 106.575114,90.2485146 C106.885914,90.3697146 107.151114,90.5605146 107.373114,90.8233146 C107.595114,91.0849146 107.705514,91.4425145 107.705514,91.8949145 C107.705514,92.4517145 107.494314,92.9029145 107.070714,93.2497144 C106.647114,93.5977144 106.075914,93.7705144 105.357114,93.7705144 C104.526714,93.7705144 103.854714,93.5773144 103.342314,93.1897144 C102.829914,92.8021145 102.520314,92.2609145 102.415914,91.5673145 L103.759914,91.5673145 C103.799514,91.9309145 103.961514,92.2249145 104.243514,92.4517145 C104.526714,92.6773145 104.897514,92.7901145 105.357114,92.7901145 C105.688314,92.7901145 105.948714,92.7037145 106.138314,92.5297145 C106.327914,92.3557145 106.422714,92.1361145 106.422714,91.8697145 C106.422714,91.6357145 106.349514,91.4509145 106.204314,91.3129146 C106.060314,91.1761146 105.877914,91.0693146 105.660714,90.9925146 C105.442314,90.9157146 105.143514,90.8365146 104.764314,90.7561146 C104.280714,90.6433146 103.887114,90.5305146 103.584714,90.4177146 C103.281114,90.3049146 103.023114,90.1213146 102.809514,89.8669146 C102.595914,89.6125147 102.489114,89.2681147 102.489114,88.8313147 C102.489114,88.2673147 102.700314,87.8089148 103.123914,87.4573148 C103.547514,87.1069148 104.135514,86.9305148 104.885514,86.9305148 Z M123.853793,85.3582749 L123.853793,87.0154748 L125.462993,87.0154748 L125.462993,88.1902747 L123.853793,88.1902747 L123.853793,91.4830745 C123.853793,91.8622745 123.924593,92.1238745 124.064993,92.2690745 C124.206593,92.4142745 124.453793,92.4874745 124.810193,92.4874745 L125.476193,92.4874745 L125.476193,93.6862744 L124.628993,93.6862744 C123.918593,93.6862744 123.379793,93.5146744 123.012593,93.1714744 C122.645393,92.8282745 122.461793,92.2570745 122.461793,91.4590745 L122.461793,88.1902747 L121.505393,88.1902747 L121.505393,87.0154748 L122.461793,87.0154748 L122.461793,85.3582749 L123.853793,85.3582749 Z M76.4513954,85.3582749 L76.4513954,87.0154748 L78.0617953,87.0154748 L78.0617953,88.1902747 L76.4513954,88.1902747 L76.4513954,91.4830745 C76.4513954,91.8622745 76.5221954,92.1238745 76.6637954,92.2690745 C76.8041954,92.4142745 77.0525954,92.4874745 77.4077954,92.4874745 L78.0737953,92.4874745 L78.0737953,93.6862744 L77.2265954,93.6862744 C76.5161954,93.6862744 75.9773955,93.5146744 75.6101955,93.1714744 C75.2429955,92.8282745 75.0593955,92.2570745 75.0593955,91.4590745 L75.0593955,88.1902747 L74.1029956,88.1902747 L74.1029956,87.0154748 L75.0593955,87.0154748 L75.0593955,85.3582749 L76.4513954,85.3582749 Z M6.14879963,85.1398749 L6.14879963,86.2534749 L3.76439978,86.2534749 L3.76439978,93.6862744 L2.37239986,93.6862744 L2.37239986,86.2534749 L-1.37667655e-14,86.2534749 L-1.37667655e-14,85.1398749 L6.14879963,85.1398749 Z M42.8373574,85.3582749 L42.8373574,87.0154748 L44.4477574,87.0154748 L44.4477574,88.1902747 L42.8373574,88.1902747 L42.8373574,91.4830745 C42.8373574,91.8622745 42.9081574,92.1238745 43.0497574,92.2690745 C43.1901574,92.4142745 43.4385574,92.4874745 43.7937574,92.4874745 L44.4597573,92.4874745 L44.4597573,93.6862744 L43.6125574,93.6862744 C42.9021574,93.6862744 42.3633575,93.5146744 41.9961575,93.1714744 C41.6289575,92.8282745 41.4453575,92.2570745 41.4453575,91.4590745 L41.4453575,88.1902747 L40.4889576,88.1902747 L40.4889576,87.0154748 L41.4453575,87.0154748 L41.4453575,85.3582749 L42.8373574,85.3582749 Z M111.071993,84.7285149 L111.071993,93.6853144 L109.691993,93.6853144 L109.691993,84.7285149 L111.071993,84.7285149 Z M83.774515,86.9068748 L83.774515,88.4080747 L83.364115,88.4080747 C82.7581151,88.4080747 82.2721151,88.5556747 81.9049151,88.8496747 C81.5377151,89.1448747 81.3541152,89.6308747 81.3541152,90.3088746 L81.3541152,93.6856744 L79.9741152,93.6856744 L79.9741152,87.0160748 L81.3541152,87.0160748 L81.3541152,88.3228747 C81.5797151,87.8872748 81.9025151,87.5428748 82.3225151,87.2884748 C82.7425151,87.0340748 83.226115,86.9068748 83.774515,86.9068748 Z M30.9752382,84.425155 L30.9752382,85.6359549 C30.4352382,85.6119549 30.0560382,85.6983549 29.8376382,85.8963549 C29.6192382,86.0943549 29.5112382,86.4315548 29.5112382,86.9067548 L29.5112382,87.0159548 L30.9752382,87.0159548 L30.9752382,88.2027547 L29.5112382,88.2027547 L29.5112382,93.6855544 L28.1180383,93.6855544 L28.1180383,88.2027547 L27.2108384,88.2027547 L27.2108384,87.0159548 L28.1180383,87.0159548 L28.1180383,86.7975548 C28.1180383,85.9827549 28.3568383,85.3719549 28.8332383,84.9639549 C29.3096383,84.557155 30.0224382,84.377155 30.9752382,84.425155 Z M97.9126742,86.9075948 C98.6878741,86.9075948 99.3094741,87.1571948 99.7774741,87.6575948 C100.245474,88.1579947 100.479474,88.8719947 100.479474,89.8007946 L100.479474,93.6851944 L99.0994741,93.6851944 L99.0994741,89.9447946 C99.0994741,89.3483947 98.9458741,88.8863947 98.6398741,88.5587947 C98.3326741,88.2323947 97.9126742,88.0691948 97.3798742,88.0691948 C96.8314742,88.0691948 96.3922743,88.2443947 96.0610743,88.5959947 C95.7298743,88.9463947 95.5654743,89.4611947 95.5654743,90.1391946 L95.5654743,93.6851944 L94.1842744,93.6851944 L94.1842744,87.0155948 L95.5654743,87.0155948 L95.5654743,88.4807947 C95.7418743,87.9803948 96.0406743,87.5927948 96.4606743,87.3191948 C96.8794742,87.0443948 97.3642742,86.9075948 97.9126742,86.9075948 Z M9.16379945,84.7283949 L9.16379945,88.4807947 C9.34019944,87.9803948 9.63899943,87.5927948 10.0589994,87.3191948 C10.4777994,87.0443948 10.9625993,86.9075948 11.5109993,86.9075948 C12.2861993,86.9075948 12.9077992,87.1571948 13.3757992,87.6575948 C13.8437992,88.1579947 14.0777992,88.8719947 14.0777992,89.8007946 L14.0777992,93.6851944 L12.6977992,93.6851944 L12.6977992,89.9447946 C12.6977992,89.3483947 12.5441993,88.8863947 12.2381993,88.5587947 C11.9309993,88.2323947 11.5109993,88.0691948 10.9781993,88.0691948 C10.4297994,88.0691948 9.9905994,88.2443947 9.65939942,88.5959947 C9.32819944,88.9463947 9.16379945,89.4611947 9.16379945,90.1391946 L9.16379945,93.6851944 L7.78259954,93.6851944 L7.78259954,84.7283949 L9.16379945,84.7283949 Z M145.375191,92.1601145 L145.375191,93.6853144 L143.812791,93.6853144 L143.812791,92.1601145 L145.375191,92.1601145 Z M58.5733165,86.9068748 L58.5733165,88.4080747 L58.1629165,88.4080747 C57.5569166,88.4080747 57.0709166,88.5556747 56.7037166,88.8496747 C56.3365166,89.1448747 56.1529167,89.6308747 56.1529167,90.3088746 L56.1529167,93.6856744 L54.7729167,93.6856744 L54.7729167,87.0160748 L56.1529167,87.0160748 L56.1529167,88.3228747 C56.3785166,87.8872748 56.7013166,87.5428748 57.1213166,87.2884748 C57.5413166,87.0340748 58.0249165,86.9068748 58.5733165,86.9068748 Z M138.609832,88.1419147 C137.995432,88.1419147 137.505832,88.3375147 137.138632,88.7287147 C136.770232,89.1199147 136.587832,89.6587147 136.587832,90.3451146 C136.587832,91.0303146 136.770232,91.5691145 137.138632,91.9603145 C137.505832,92.3527145 137.995432,92.5483145 138.609832,92.5483145 C138.996232,92.5483145 139.343032,92.4571145 139.650232,92.2759145 C139.957432,92.0935145 140.198632,91.8379145 140.376232,91.5067145 C140.553832,91.1767146 140.642632,90.7891146 140.642632,90.3451146 C140.642632,89.9083146 140.553832,89.5243147 140.376232,89.1883147 C140.198632,88.8535147 139.957432,88.5955147 139.650232,88.4143147 C139.343032,88.2319147 138.996232,88.1419147 138.609832,88.1419147 Z M88.5081547,88.1419147 C87.8937548,88.1419147 87.4041548,88.3375147 87.0369548,88.7287147 C86.6697548,89.1199147 86.4861548,89.6587147 86.4861548,90.3451146 C86.4861548,91.0303146 86.6697548,91.5691145 87.0369548,91.9603145 C87.4041548,92.3527145 87.8937548,92.5483145 88.5081547,92.5483145 C88.8945547,92.5483145 89.2413547,92.4571145 89.5485547,92.2759145 C89.8557546,92.0935145 90.0969546,91.8379145 90.2745546,91.5067145 C90.4521546,91.1767146 90.5409546,90.7891146 90.5409546,90.3451146 C90.5409546,89.9083146 90.4521546,89.5243147 90.2745546,89.1883147 C90.0969546,88.8535147 89.8557546,88.5955147 89.5485547,88.4143147 C89.2413547,88.2319147 88.8945547,88.1419147 88.5081547,88.1419147 Z M116.446193,88.1419147 C115.831793,88.1419147 115.342193,88.3375147 114.974993,88.7287147 C114.606593,89.1199147 114.424193,89.6587147 114.424193,90.3451146 C114.424193,91.0303146 114.606593,91.5691145 114.974993,91.9603145 C115.342193,92.3527145 115.831793,92.5483145 116.446193,92.5483145 C116.832593,92.5483145 117.179393,92.4571145 117.486593,92.2759145 C117.793793,92.0935145 118.034993,91.8379145 118.212593,91.5067145 C118.390193,91.1767146 118.478993,90.7891146 118.478993,90.3451146 C118.478993,89.9083146 118.390193,89.5243147 118.212593,89.1883147 C118.034993,88.8535147 117.793793,88.5955147 117.486593,88.4143147 C117.179393,88.2319147 116.832593,88.1419147 116.446193,88.1419147 Z M130.341352,88.0328348 C129.800152,88.0328348 129.348952,88.1984347 128.985352,88.5284347 C128.622952,88.8596347 128.424952,89.3480347 128.392552,89.9936346 L132.182152,89.9936346 C132.196552,89.5580347 132.123352,89.1932347 131.957752,88.8980347 C131.790952,88.6040347 131.566552,88.3856347 131.279752,88.2452347 C130.992952,88.1036347 130.680952,88.0328348 130.341352,88.0328348 Z M63.1730362,88.0328348 C62.6330363,88.0328348 62.1806363,88.1984347 61.8170363,88.5284347 C61.4546363,88.8596347 61.2566363,89.3480347 61.2242364,89.9936346 L65.0138361,89.9936346 C65.0294361,89.5580347 64.9550361,89.1932347 64.7894361,88.8980347 C64.6238361,88.6040347 64.3982362,88.3856347 64.1114362,88.2452347 C63.8246362,88.1036347 63.5126362,88.0328348 63.1730362,88.0328348 Z M19.2581989,88.0328348 C18.7181989,88.0328348 18.2657989,88.1984347 17.9021989,88.5284347 C17.539799,88.8596347 17.341799,89.3480347 17.309399,89.9936346 L21.0989987,89.9936346 C21.1145987,89.5580347 21.0401987,89.1932347 20.8745988,88.8980347 C20.7089988,88.6040347 20.4833988,88.3856347 20.1965988,88.2452347 C19.9097988,88.1036347 19.5977988,88.0328348 19.2581989,88.0328348 Z M33.340318,58.3401565 C34.7227179,58.3401565 35.9779179,58.6617565 37.1059178,59.3049565 C38.2339177,59.9481564 39.1219177,60.8409564 39.7723176,61.9821563 C40.4227176,63.1233562 40.7479176,64.4133562 40.7479176,65.8521561 C40.7479176,67.290956 40.4191176,68.5845559 39.7627176,69.7329558 C39.1051177,70.8813558 38.2123177,71.7765557 37.0855178,72.4197557 C35.9575179,73.0629556 34.7095179,73.3845556 33.340318,73.3845556 C31.9699181,73.3845556 30.7219182,73.0629556 29.5939182,72.4197557 C28.4671183,71.7765557 27.5743184,70.8813558 26.9179184,69.7329558 C26.2603184,68.5845559 25.9315185,67.290956 25.9315185,65.8521561 C25.9315185,64.4133562 26.2603184,63.1233562 26.9179184,61.9821563 C27.5743184,60.8409564 28.4671183,59.9481564 29.5939182,59.3049565 C30.7219182,58.6617565 31.9699181,58.3401565 33.340318,58.3401565 Z M71.2307958,58.5682765 L71.2307958,61.3906763 L65.6483961,61.3906763 L65.6483961,64.4614762 L70.6079958,64.4614762 L70.6079958,67.138676 L65.6483961,67.138676 L65.6483961,70.3966758 L71.2307958,70.3966758 L71.2307958,73.2394756 L62.0999963,73.2394756 L62.0999963,58.5682765 L71.2307958,58.5682765 Z M9.68411942,58.6724365 L13.6465192,68.8196359 L17.527319,58.6724365 L21.8437187,58.6724365 L21.8437187,73.2392356 L18.2953189,73.2392356 L18.295,64.131 L15.1417191,73.2392356 L12.0697193,73.2392356 L8.89451947,64.1084362 L8.89451947,73.2392356 L5.34611968,73.2392356 L5.34611968,58.6724365 L9.68411942,58.6724365 Z M50.354517,58.5682765 C51.9325169,58.5682765 53.2945168,58.8730765 54.4429168,59.4814765 C55.5913167,60.0898764 56.4733166,60.9478764 57.0889166,62.0542763 C57.7045166,63.1618762 58.0117165,64.4338762 58.0117165,65.8726761 C58.0117165,67.312676 57.7045166,68.5882759 57.0889166,69.7018758 C56.4733166,70.8154758 55.5877167,71.6830757 54.4321168,72.3058757 C53.2777168,72.9286757 51.9181169,73.2394756 50.354517,73.2394756 L44.8141173,73.2394756 L44.8141173,58.5682765 L50.354517,58.5682765 Z M81.3776351,58.5693565 C82.5392351,58.5693565 83.520835,58.7697565 84.323635,59.1705565 C85.1264349,59.5713564 85.7276349,60.1209564 86.1296349,60.8205564 C86.5304348,61.5189563 86.7308348,62.3181563 86.7308348,63.2169562 C86.7308348,64.2825562 86.4368348,65.1885561 85.8488349,65.9349561 C85.2608349,66.682556 84.406435,67.194956 83.286835,67.470956 L86.7728348,73.2393556 L82.8500351,73.2393556 L79.6760353,67.698956 L78.8660353,67.698956 L78.8660353,73.2393556 L75.3176355,73.2393556 L75.3176355,58.5693565 L81.3776351,58.5693565 Z M112.482233,58.6724365 L116.445833,68.8196359 L120.325433,58.6724365 L124.641833,58.6724365 L124.641833,73.2392356 L121.093433,73.2392356 L121.093,64.131 L117.939833,73.2392356 L114.867833,73.2392356 L111.693833,64.1084362 L111.693833,73.2392356 L108.145434,73.2392356 L108.145434,58.6724365 L112.482233,58.6724365 Z M94.1383144,58.5682765 L100.073514,67.657076 L100.073514,58.5682765 L103.621914,58.5682765 L103.621914,73.2394756 L100.073514,73.2394756 L94.1383144,64.2334762 L94.1383144,73.2394756 L90.5899146,73.2394756 L90.5899146,58.5682765 L94.1383144,58.5682765 Z M139.707472,58.5687565 L139.707472,61.3911563 L135.723472,61.3911563 L135.723472,73.2399556 L132.153472,73.2399556 L132.153472,61.3911563 L128.211472,61.3911563 L128.211472,58.5687565 L139.707472,58.5687565 Z M50.043717,61.6810763 L48.3625171,61.6810763 L48.3625171,70.0654758 L50.043717,70.0654758 C51.4273169,70.0654758 52.5025169,69.6982758 53.2705168,68.9650759 C54.0385168,68.2318759 54.4225168,67.201076 54.4225168,65.8726761 C54.4225168,64.5442762 54.0385168,63.5146762 53.2705168,62.7814763 C52.5025169,62.0482763 51.4273169,61.6810763 50.043717,61.6810763 Z M33.340318,61.6401563 C32.1775181,61.6401563 31.2547181,62.0169563 30.5695182,62.7705563 C29.8843182,63.5241562 29.5423182,64.5513562 29.5423182,65.8521561 C29.5423182,67.138556 29.8843182,68.1633559 30.5695182,68.9229559 C31.2547181,69.6837558 32.1775181,70.0653558 33.340318,70.0653558 C34.4875179,70.0653558 35.4079179,69.6837558 36.0991178,68.9229559 C36.7915178,68.1633559 37.1371178,67.138556 37.1371178,65.8521561 C37.1371178,64.5657562 36.7939178,63.5421562 36.1099178,62.7813563 C35.4247179,62.0205563 34.5019179,61.6401563 33.340318,61.6401563 Z M81.0656352,61.5561563 L78.8660353,61.5561563 L78.8660353,65.2713561 L81.0656352,65.2713561 C81.7712351,65.2713561 82.2908351,65.1153561 82.6220351,64.8045561 C82.9544351,64.4937562 83.120035,64.0329562 83.120035,63.4245562 C83.120035,62.8437563 82.9508351,62.3865563 82.6124351,62.0541563 C82.2728351,61.7229563 81.7580351,61.5561563 81.0656352,61.5561563 Z M64.2238762,3.55271368e-15 C64.5466762,3.55271368e-15 64.8478761,0.16679999 65.0182761,0.440399974 L73.1794756,13.5407992 L81.4318751,0.436799974 C81.6034751,0.16439999 81.9034751,3.55271368e-15 82.2250751,3.55271368e-15 L104.078274,3.55271368e-15 C104.239074,0.0179999989 104.423874,0.0443999974 104.578674,0.140399992 C104.599074,0.152399991 104.619474,0.16679999 104.638674,0.181199989 C104.921874,0.387599977 105.058674,0.729599957 105.013074,1.06199994 L100.849074,36.4571978 C100.793874,36.9287978 100.394274,37.2839978 99.919074,37.2839978 L46.4338772,37.2839978 C46.2850772,37.2839978 46.1434772,37.2491978 46.0174773,37.1855978 L45.9301773,37.1360978 L45.8482773,37.0775978 L45.8470773,37.0775978 C45.6658773,36.9311978 45.5386773,36.7175978 45.5050773,36.4691978 L45.5050773,36.4607978 L41.1622775,1.07279994 C41.1478775,0.976799942 41.1490775,0.880799948 41.1634775,0.787199953 C41.1754775,0.716399957 41.1946775,0.647999961 41.2210775,0.583199965 C41.2966775,0.399599976 41.4298775,0.238799986 41.6098775,0.131999992 C41.6362775,0.115199993 41.6638775,0.100799994 41.6914775,0.0875999948 C41.8258775,0.0251999985 41.9674775,0.00119999993 42.1078775,3.55271368e-15 L64.2238762,3.55271368e-15 Z M43.6750774,6.16919963 L47.2642772,35.4095979 L58.4014765,35.4095979 L43.6750774,6.16919963 Z M65.5654761,29.1443983 L61.6186763,35.4095979 L71.0566758,35.4095979 L65.5654761,29.1443983 Z M80.6806752,29.1275983 L75.1882755,35.4095979 L84.593875,35.4095979 L80.6806752,29.1275983 Z M102.532674,6.10919964 L87.8014748,35.4095979 L99.0850741,35.4095979 L102.532674,6.10919964 Z M73.1698756,17.071199 L66.607076,27.4895984 L73.1230756,34.9247979 L79.6450753,27.4655984 L73.1698756,17.071199 Z M46.2382772,7.09199958 L60.0118764,34.4447979 L64.2766762,27.6743984 L46.2382772,7.09199958 Z M99.933474,7.10879958 L81.9694751,27.6527984 L86.1946749,34.4339979 L99.933474,7.10879958 Z M63.7030762,1.87319989 L44.1562774,1.87319989 L65.3182761,26.0207984 L72.0682757,15.3035991 L63.7030762,1.87319989 Z M102.021474,1.87319989 L82.7422751,1.87319989 L74.2798756,15.3083991 L80.9338752,25.9907985 L102.021474,1.87319989 Z" id="Logo"/>
                </g>
            </g>
        </g>
    </g>
</svg>